<svg width="59" height="85" viewBox="0 0 59 85" fill="none" xmlns="http://www.w3.org/2000/svg">
<path d="M52.661 36.923C56.0095 40.0807 56.0095 45.4058 52.6609 48.5635L33.5837 66.5535C28.4803 71.366 20.0951 67.7479 20.0951 60.7332L20.0951 24.7533C20.0951 17.7386 28.4803 14.1205 33.5837 18.933L52.661 36.923Z" fill="#B3D3F8"/>
<path d="M0.295776 41.2739C0.295776 36.8556 3.8775 33.2739 8.29578 33.2739H20.956V52.2124H8.29577C3.87749 52.2124 0.295776 48.6307 0.295776 44.2124L0.295776 41.2739Z" fill="#B3D3F8"/>
<path d="M50.4017 40.5337C51.6958 41.7224 51.6958 43.7638 50.4017 44.9525L29.4288 64.2164C27.5053 65.9832 24.3994 64.6187 24.3994 62.007L24.3994 23.4792C24.3994 20.8675 27.5053 19.503 29.4288 21.2698L50.4017 40.5337Z" fill="#F5F5F5"/>
<path d="M4.59998 40.5781C4.59998 38.9213 5.94312 37.5781 7.59998 37.5781H24.3993V47.9082H7.59997C5.94312 47.9082 4.59998 46.5651 4.59998 44.9082V40.5781Z" fill="#F5F5F5"/>
</svg>
